<?xml version="1.0" standalone="no"?>
<!DOCTYPE svg PUBLIC "-//W3C//DTD SVG 20010904//EN"
 "http://www.w3.org/TR/2001/REC-SVG-20010904/DTD/svg10.dtd">
<svg version="1.0" xmlns="http://www.w3.org/2000/svg"
 width="600.000000pt" height="600.000000pt" viewBox="0 0 600.000000 600.000000"
 preserveAspectRatio="xMidYMid meet">

<g transform="translate(0.000000,600.000000) scale(0.100000,-0.100000)"
fill="#000000" stroke="none">
<path d="M2713 5860 c-446 -43 -865 -180 -1245 -407 -209 -124 -363 -247 -559
-442 -254 -255 -404 -463 -559 -776 -135 -274 -223 -558 -271 -875 -34 -224
-34 -596 0 -820 76 -504 261 -947 567 -1358 120 -161 400 -439 566 -563 400
-299 848 -485 1348 -560 131 -20 194 -23 410 -23 216 0 279 3 410 23 398 60
754 187 1092 388 209 124 363 247 559 442 254 255 404 463 559 776 135 274
223 558 271 875 20 131 23 194 23 410 0 216 -3 279 -23 410 -76 504 -261 947
-567 1358 -120 161 -400 439 -566 563 -399 298 -853 487 -1343 559 -169 25
-515 35 -672 20z m-675 -1627 l-3 -88 -122 -3 -123 -3 0 -418 c0 -231 -3 -426
-6 -435 -9 -24 -189 -24 -198 0 -3 9 -6 204 -6 435 l0 418 -122 3 -123 3 -3
74 c-2 41 -1 80 2 88 4 10 72 13 356 13 l351 0 -3 -87z m660 -125 l2 -208 240
0 240 0 2 208 3 207 95 0 95 0 0 -520 0 -520 -95 0 -95 0 -3 218 -2 217 -240
0 -240 0 -2 -217 -3 -218 -95 0 -95 0 -3 510 c-1 281 0 516 3 523 3 9 29 12
97 10 l93 -3 3 -207z m1926 196 c11 -28 6 -140 -6 -152 -9 -9 -76 -12 -240
-12 l-228 0 0 -120 0 -120 189 0 c150 0 191 -3 200 -14 8 -9 11 -43 9 -93 l-3
-78 -197 -3 -198 -2 0 -130 0 -130 228 0 c164 0 231 -3 240 -12 13 -13 16
-136 4 -156 -7 -9 -81 -12 -338 -10 l-329 3 -3 510 c-1 281 0 516 3 523 3 9
79 12 334 12 291 0 330 -2 335 -16z m-3124 -1543 c6 -12 10 -100 10 -215 l0
-196 240 0 240 0 2 213 3 212 95 0 95 0 3 -514 c1 -371 -1 -518 -9 -527 -15
-18 -160 -19 -177 -2 -9 9 -12 73 -12 225 l0 213 -240 0 -240 0 0 -209 c0
-249 3 -241 -101 -241 -121 0 -109 -56 -109 528 0 382 3 511 12 520 7 7 44 12
95 12 71 0 84 -3 93 -19z m1220 -336 l5 -351 26 -49 c45 -88 160 -136 254
-105 48 16 101 63 128 114 21 39 22 55 27 391 l5 350 95 0 95 0 3 -349 c3
-388 -2 -429 -59 -518 -17 -27 -53 -68 -80 -92 -223 -201 -591 -103 -679 181
-18 60 -20 92 -20 417 0 194 3 356 7 360 4 4 48 5 98 4 l90 -3 5 -350z m1711
329 c60 -28 125 -87 152 -138 32 -63 30 -167 -5 -227 -28 -48 -99 -119 -121
-119 -6 -1 2 -8 18 -17 133 -71 189 -187 151 -315 -30 -105 -131 -187 -256
-207 -85 -14 -415 -14 -441 -1 -18 10 -19 27 -19 518 0 393 3 511 13 521 9 9
66 11 237 9 205 -3 229 -5 271 -24z"/>
<path d="M4118 2594 c-5 -4 -8 -63 -8 -131 l0 -123 99 0 c85 0 102 3 132 23
48 32 68 95 48 150 -23 65 -54 81 -167 85 -53 2 -100 1 -104 -4z"/>
<path d="M4110 2040 l0 -130 116 0 116 0 39 39 c33 33 39 45 39 81 0 98 -64
140 -213 140 l-97 0 0 -130z"/>
</g>
</svg>
